<svg width="12" height="12" viewBox="0 0 12 12" fill="none" xmlns="http://www.w3.org/2000/svg">
<path d="M10.5895 7.62216L11.8761 8.26545C12.0413 8.34807 12.0413 8.58386 11.8761 8.66648L6.20054 11.5042C6.07431 11.5674 5.92574 11.5674 5.79951 11.5042L0.123976 8.66648C-0.0412566 8.58386 -0.041257 8.34807 0.123976 8.26545L1.41055 7.62216L5.39848 9.61613C5.77716 9.80547 6.22289 9.80547 6.60157 9.61613L10.5895 7.62216Z" fill="white"/>
<path d="M5.79946 0.047335C5.92569 -0.0157783 6.07426 -0.0157783 6.20049 0.0473349L11.876 2.8851C12.0413 2.96772 12.0413 3.20351 11.876 3.28613L6.20049 6.1239C6.07426 6.18701 5.92569 6.18701 5.79946 6.1239L0.123925 3.28613C-0.041308 3.20351 -0.0413083 2.96772 0.123924 2.8851L5.79946 0.047335Z" fill="white"/>
<path d="M10.5895 4.93199L11.8761 5.57528C12.0413 5.65789 12.0413 5.89369 11.8761 5.9763L6.20054 8.81407C6.07431 8.87719 5.92574 8.87719 5.79951 8.81407L0.123976 5.9763C-0.0412566 5.89369 -0.041257 5.65789 0.123976 5.57528L1.41055 4.93199L5.39848 6.92595C5.77716 7.11529 6.22289 7.11529 6.60157 6.92595L10.5895 4.93199Z" fill="white"/>
</svg>
